<?xml version="1.0"?>
<svg xmlns="http://www.w3.org/2000/svg" xmlns:xlink="http://www.w3.org/1999/xlink" version="1.1" id="Capa_1" x="0px" y="0px" viewBox="0 0 416.934 416.934" style="enable-background:new 0 0 416.934 416.934;" xml:space="preserve" width="512px" height="512px" class=""><g><path id="XMLID_711_" d="M224.601,108.797V85.836c0-15.592,10.779-28.715,25.275-32.306V40.739c0-4.418,3.582-8,8-8s8,3.582,8,8  v12.79c14.498,3.592,25.278,16.714,25.278,32.307v20.791c0,4.418-3.582,8-8,8s-8-3.582-8-8V85.836  c0-9.527-7.751-17.278-17.278-17.278c-9.525,0-17.275,7.751-17.275,17.278v22.961c0,4.418-3.582,8-8,8  S224.601,113.216,224.601,108.797z M265.893,159.513v13.512c0,23.3,0.001,29.344-17.295,37.332v-53.834  c0-16.981-13.815-30.797-30.797-30.797c-16.98,0-30.795,13.816-30.795,30.797v21.643l-0.357-0.357  c-3.124-3.125-8.189-3.124-11.314,0c-3.124,3.125-3.124,8.189,0,11.313l11.671,11.671v37.644c0,4.418,3.582,8,8,8s8-3.582,8-8  v-81.914c0-8.159,6.637-14.797,14.795-14.797c8.159,0,14.797,6.638,14.797,14.797v65.819c0,2.639,1.302,5.108,3.479,6.6  c2.178,1.492,4.95,1.813,7.41,0.86c16.051-6.215,26.499-11.675,32.412-21.187c5.577-8.972,5.994-19.917,5.994-35.59v-13.512  c0-8.159,6.637-14.797,14.795-14.797c8.159,0,14.798,6.638,14.798,14.797v32.594c0,35.601-42.961,67.371-72.537,73.602  c-3.701,0.78-6.351,4.045-6.351,7.828v58.899c0,0.019,0,0.037,0,0.055v38.137c0,4.418,3.582,8,8,8s8-3.582,8-8v-34.851  l11.671-11.671c3.124-3.125,3.124-8.189-0.001-11.314c-3.122-3.123-8.188-3.124-11.313,0l-0.356,0.357v-33.379  c15.048-4.368,30.869-13.043,44.239-24.257l8.673,8.671c3.123,3.125,8.188,3.125,11.313,0c3.124-3.125,3.124-8.189,0-11.313  l-8.405-8.405c14.935-16.28,23.067-34.623,23.067-52.359v-32.594c0-16.981-13.815-30.797-30.798-30.797  C279.707,128.716,265.893,142.531,265.893,159.513z M323.876,124.389c4.418,0,8-3.582,8-8V49.733c0-5.3,4.313-9.612,9.613-9.612  c5.3,0,9.611,4.312,9.611,9.612V68.66c0,0.006,0,0.012,0,0.017v82.397c0,0.006,0,0.012,0,0.017v14.505  c0,10.583-4.123,20.571-11.923,28.883c-3.023,3.222-2.862,8.284,0.359,11.308c1.544,1.449,3.511,2.167,5.473,2.167  c2.133,0,4.261-0.848,5.836-2.526c10.634-11.332,16.255-25.105,16.255-39.831v-11.2l11.671-11.67c3.124-3.124,3.124-8.189,0-11.313  c-3.124-3.124-8.188-3.125-11.314,0l-0.356,0.357V71.983l11.671-11.67c3.124-3.124,3.124-8.189,0-11.313  c-3.124-3.124-8.188-3.125-11.314,0l-0.359,0.359c-0.2-13.951-11.611-25.237-25.608-25.237c-14.123,0-25.613,11.489-25.613,25.612  v66.656C315.876,120.808,319.458,124.389,323.876,124.389z M364.321,345.22c-18.805-5.866-45.128-10.544-76.125-13.53  c-4.391-0.422-8.306,2.798-8.729,7.196c-0.424,4.398,2.798,8.307,7.196,8.73c75.812,7.302,94.842,21.325,95.965,24.881  c-0.821,2.579-11.464,11.158-49.82,18.489c-33.564,6.415-77.723,9.947-124.341,9.947c-46.617,0-90.775-3.533-124.34-9.947  c-38.356-7.331-49-15.91-49.821-18.488c1.124-3.556,20.154-17.58,95.967-24.881c4.398-0.424,7.62-4.333,7.196-8.73  s-4.33-7.627-8.73-7.196c-30.997,2.985-57.321,7.664-76.125,13.53c-23.097,7.204-34.325,16.127-34.325,27.278  c0,14.568,19.558,25.562,59.791,33.608c34.91,6.982,81.216,10.827,130.388,10.827c49.173,0,95.479-3.845,130.389-10.827  c40.232-8.046,59.79-19.04,59.79-33.608C398.646,361.347,387.418,352.424,364.321,345.22z M49.476,150.493  c-3.124-3.124-8.189-3.124-11.313,0c-3.125,3.124-3.125,8.189,0,11.313l11.671,11.671v14.066c0,18.447,7.055,35.716,20.401,49.942  c1.575,1.679,3.703,2.526,5.836,2.526c1.962,0,3.929-0.717,5.472-2.166c3.222-3.023,3.384-8.086,0.361-11.308  c-10.513-11.206-16.07-24.69-16.07-38.995V91.815c0-0.005,0-0.011,0-0.017V60.449c0-8.158,6.638-14.795,14.797-14.795  c8.159,0,14.796,6.637,14.796,14.795v26.387c0,4.418,3.582,8,8,8s8-3.582,8-8V60.449c0-16.98-13.815-30.795-30.796-30.795  c-16.981,0-30.797,13.815-30.797,30.795v12.044l-0.357-0.357c-3.124-3.124-8.19-3.124-11.314,0c-3.124,3.125-3.124,8.189,0,11.314  l11.671,11.67v55.729L49.476,150.493z M96.082,133.255v11.533l-0.356-0.356c-3.124-3.124-8.189-3.124-11.313,0  c-3.125,3.124-3.125,8.189,0,11.313l11.67,11.67v74.424c0,16.79,5.868,32.615,16.798,45.882l-8.616,8.616  c-3.125,3.124-3.125,8.189,0,11.313c3.124,3.124,8.189,3.124,11.313,0l8.615-8.614c0.485,0.403,0.977,0.804,1.475,1.2  c8.628,6.871,29.784,19.031,44.819,24.375v46.017c0,4.418,3.582,8,8,8s8-3.582,8-8v-6.212l11.671-11.671  c3.124-3.124,3.124-8.189,0-11.314c-3.124-3.124-8.189-3.124-11.313,0l-0.357,0.357v-23.09c0-3.696-2.531-6.91-6.124-7.777  c-11.097-2.677-35.378-15.756-44.728-23.202c-2.069-1.648-4.012-3.374-5.824-5.17c-0.071-0.077-0.144-0.152-0.219-0.227  c-0.074-0.074-0.149-0.146-0.225-0.217c-11.204-11.312-17.284-25.354-17.284-40.267v-77.71c0-0.018,0-0.037,0-0.055v-30.819  c0-8.159,6.637-14.796,14.796-14.796c8.159,0,14.797,6.637,14.797,14.796v102.493c0,10.476,5.379,21.686,14.757,30.755  c11.944,11.551,28.381,17.858,45.119,17.293c4.416-0.148,7.875-3.848,7.728-8.264s-3.842-7.882-8.264-7.728  c-12.419,0.411-24.616-4.251-33.46-12.804c-6.187-5.982-9.88-13.18-9.88-19.253V133.255c0-16.981-13.815-30.796-30.797-30.796  C109.897,102.459,96.082,116.274,96.082,133.255z M144.966,65.495v25.59c0,4.418,3.582,8,8,8s8-3.582,8-8V62.19  c0-0.006,0-0.012,0-0.017V33.278c0-9.527,7.75-17.278,17.277-17.278c9.526,0,17.276,7.751,17.276,17.278v75.519c0,4.418,3.582,8,8,8  s8-3.582,8-8V33.278c0-2.078-0.191-4.112-0.557-6.085l10.765-10.765c3.125-3.124,3.125-8.189,0.001-11.314  c-3.124-3.124-8.189-3.124-11.313,0l-6.733,6.732C197.572,4.606,188.436,0,178.243,0c-18.349,0-33.277,14.929-33.277,33.278v9.589  l-0.356-0.356c-3.123-3.125-8.188-3.124-11.313,0c-3.125,3.124-3.125,8.189,0,11.313L144.966,65.495z" data-original="#000000" class="active-path" data-old_color="#000000" fill="#5596BA"/></g> </svg>
